{
  "accessors": [
    {
      "bufferView": 2,
      "componentType": 5126,
      "count": 1687,
      "max": [
        8.975947380065918,
        26.23065185546875,
        10.727874755859375
      ],
      "min": [
        -9.267308235168457,
        -3.8660194873809814,
        -7.79210090637207
      ],
      "type": "VEC3"
    },
    {
      "bufferView": 2,
      "byteOffset": 20244,
      "componentType": 5126,
      "count": 1687,
      "max": [
        0.998613178730011,
        0.9966679811477661,
        0.9971396327018738
      ],
      "min": [
        -0.9980789422988892,
        -0.9995525479316711,
        -0.9947950839996338
      ],
      "type": "VEC3"
    },
    {
      "bufferView": 3,
      "componentType": 5126,
      "count": 1687,
      "max": [
        0.9980684518814087,
        0.9999139308929443,
        0.9951879978179932,
        1.0
      ],
      "min": [
        -0.9998493790626526,
        -0.9911807179450989,
        -0.99992436170578,
        -1.0
      ],
      "type": "VEC4"
    },
    {
      "bufferView": 1,
      "componentType": 5126,
      "count": 1687,
      "max": [
        0.9860730171203613,
        0.9923020601272583
      ],
      "min": [
        0.010368882678449154,
        -0.0003839712589979172
      ],
      "type": "VEC2"
    },
    {
      "bufferView": 0,
      "componentType": 5125,
      "count": 9288,
      "type": "SCALAR"
    }
  ],
  "asset": {
    "extras": {
      "author": "Tadeas Kribek (https://sketchfab.com/tadeas.kribek)",
      "license": "CC-BY-4.0 (http://creativecommons.org/licenses/by/4.0/)",
      "source": "https://sketchfab.com/3d-models/macrolepiota-procera-80edb9e8104f4995aac3dd0dcd3fc4d6",
      "title": "Macrolepiota procera"
    },
    "generator": "Sketchfab-15.18.0",
    "version": "2.0"
  },
  "bufferViews": [
    {
      "buffer": 0,
      "byteLength": 37152,
      "name": "floatBufferViews",
      "target": 34963
    },
    {
      "buffer": 0,
      "byteLength": 13496,
      "byteOffset": 37152,
      "byteStride": 8,
      "name": "floatBufferViews",
      "target": 34962
    },
    {
      "buffer": 0,
      "byteLength": 40488,
      "byteOffset": 50648,
      "byteStride": 12,
      "name": "floatBufferViews",
      "target": 34962
    },
    {
      "buffer": 0,
      "byteLength": 26992,
      "byteOffset": 91136,
      "byteStride": 16,
      "name": "floatBufferViews",
      "target": 34962
    }
  ],
  "buffers": [
    {
      "byteLength": 118128,
      "uri": "scene.bin"
    }
  ],
  "images": [
    {
      "uri": "textures/Scene_-_Root_baseColor.png"
    },
    {
      "uri": "textures/Scene_-_Root_normal.png"
    }
  ],
  "materials": [
    {
      "doubleSided": true,
      "name": "Scene_-_Root",
      "normalTexture": {
        "index": 1
      },
      "pbrMetallicRoughness": {
        "baseColorTexture": {
          "index": 0
        },
        "metallicFactor": 0.0,
        "roughnessFactor": 0.6
      }
    }
  ],
  "meshes": [
    {
      "name": "bedla_LOD0__0",
      "primitives": [
        {
          "attributes": {
            "NORMAL": 1,
            "POSITION": 0,
            "TANGENT": 2,
            "TEXCOORD_0": 3
          },
          "indices": 4,
          "material": 0,
          "mode": 4
        }
      ]
    }
  ],
  "nodes": [
    {
      "children": [
        1
      ],
      "matrix": [
        1.0,
        0.0,
        0.0,
        0.0,
        0.0,
        2.220446049250313e-16,
        -1.0,
        0.0,
        0.0,
        1.0,
        2.220446049250313e-16,
        0.0,
        0.0,
        0.0,
        0.0,
        1.0
      ],
      "name": "Sketchfab_model"
    },
    {
      "children": [
        2
      ],
      "matrix": [
        0.009999999776482582,
        0.0,
        0.0,
        0.0,
        0.0,
        0.0,
        0.009999999776482582,
        0.0,
        0.0,
        -0.009999999776482582,
        0.0,
        0.0,
        0.0,
        0.0,
        0.0,
        1.0
      ],
      "name": "8baf825fb23744009974ec2b7a3d54e3.fbx"
    },
    {
      "children": [
        3
      ],
      "name": "RootNode"
    },
    {
      "children": [
        4
      ],
      "name": "bedla_LOD0"
    },
    {
      "mesh": 0,
      "name": "bedla_LOD0__0"
    }
  ],
  "samplers": [
    {
      "magFilter": 9729,
      "minFilter": 9987,
      "wrapS": 10497,
      "wrapT": 10497
    }
  ],
  "scene": 0,
  "scenes": [
    {
      "name": "Sketchfab_Scene",
      "nodes": [
        0
      ]
    }
  ],
  "textures": [
    {
      "sampler": 0,
      "source": 0
    },
    {
      "sampler": 0,
      "source": 1
    }
  ]
}
