{
  "accessors": [
    {
      "bufferView": 2,
      "componentType": 5126,
      "count": 1651,
      "max": [
        83.01532745361328,
        1016.320556640625,
        49.04180145263672
      ],
      "min": [
        -76.25408935546875,
        -0.2596440017223358,
        -87.88099670410156
      ],
      "type": "VEC3"
    },
    {
      "bufferView": 2,
      "byteOffset": 19812,
      "componentType": 5126,
      "count": 1651,
      "max": [
        0.9998741149902344,
        1.0,
        0.99992835521698
      ],
      "min": [
        -0.9998741149902344,
        -0.9998571276664734,
        -0.9998741149902344
      ],
      "type": "VEC3"
    },
    {
      "bufferView": 3,
      "componentType": 5126,
      "count": 1651,
      "max": [
        1.0,
        0.9998448491096497,
        0.9999906420707703,
        1.0
      ],
      "min": [
        -0.9989084005355835,
        -0.9999241828918457,
        -0.999962568283081,
        -1.0
      ],
      "type": "VEC4"
    },
    {
      "bufferView": 1,
      "componentType": 5126,
      "count": 1651,
      "max": [
        0.4015910029411316,
        1.0
      ],
      "min": [
        0.0,
        0.0
      ],
      "type": "VEC2"
    },
    {
      "bufferView": 0,
      "componentType": 5125,
      "count": 6768,
      "type": "SCALAR"
    }
  ],
  "asset": {
    "extras": {
      "author": "DreamsOfDecay (https://sketchfab.com/MariDepuis)",
      "license": "CC-BY-4.0 (http://creativecommons.org/licenses/by/4.0/)",
      "source": "https://sketchfab.com/3d-models/dry-pine-f09422dd3f444c82bb512fce48a488c1",
      "title": "Dry Pine"
    },
    "generator": "Sketchfab-14.17.0",
    "version": "2.0"
  },
  "bufferViews": [
    {
      "buffer": 0,
      "byteLength": 27072,
      "name": "floatBufferViews",
      "target": 34963
    },
    {
      "buffer": 0,
      "byteLength": 13208,
      "byteOffset": 27072,
      "byteStride": 8,
      "name": "floatBufferViews",
      "target": 34962
    },
    {
      "buffer": 0,
      "byteLength": 39624,
      "byteOffset": 40280,
      "byteStride": 12,
      "name": "floatBufferViews",
      "target": 34962
    },
    {
      "buffer": 0,
      "byteLength": 26416,
      "byteOffset": 79904,
      "byteStride": 16,
      "name": "floatBufferViews",
      "target": 34962
    }
  ],
  "buffers": [
    {
      "byteLength": 106320,
      "uri": "scene.bin"
    }
  ],
  "images": [
    {
      "uri": "textures/bark_baseColor.png"
    },
    {
      "uri": "textures/bark_metallicRoughness.png"
    },
    {
      "uri": "textures/bark_emissive.jpeg"
    },
    {
      "uri": "textures/bark_normal.png"
    }
  ],
  "materials": [
    {
      "alphaMode": "BLEND",
      "doubleSided": true,
      "emissiveFactor": [
        1.0,
        1.0,
        1.0
      ],
      "emissiveTexture": {
        "index": 2
      },
      "name": "bark",
      "normalTexture": {
        "index": 3
      },
      "occlusionTexture": {
        "index": 1
      },
      "pbrMetallicRoughness": {
        "baseColorTexture": {
          "index": 0
        },
        "metallicRoughnessTexture": {
          "index": 1
        }
      }
    }
  ],
  "meshes": [
    {
      "name": "defaultMaterial",
      "primitives": [
        {
          "attributes": {
            "NORMAL": 1,
            "POSITION": 0,
            "TANGENT": 2,
            "TEXCOORD_0": 3
          },
          "indices": 4,
          "material": 0,
          "mode": 4
        }
      ]
    }
  ],
  "nodes": [
    {
      "children": [
        1
      ],
      "matrix": [
        0.010000418871641159,
        0.0,
        0.0,
        0.0,
        0.0,
        2.2205390574383885e-18,
        -0.010000418871641159,
        0.0,
        0.0,
        0.010000418871641159,
        2.2205390574383885e-18,
        0.0,
        0.0,
        0.0,
        0.0,
        1.0
      ],
      "name": "Sketchfab_model"
    },
    {
      "children": [
        2
      ],
      "matrix": [
        1.0,
        0.0,
        0.0,
        0.0,
        0.0,
        -4.371139006309477e-08,
        0.999999999999999,
        0.0,
        0.0,
        -0.999999999999999,
        -4.371139006309477e-08,
        0.0,
        0.0,
        0.0,
        0.0,
        1.0
      ],
      "name": "Collada visual scene group"
    },
    {
      "children": [
        3
      ],
      "name": "pine_low"
    },
    {
      "mesh": 0,
      "name": "defaultMaterial"
    }
  ],
  "samplers": [
    {
      "magFilter": 9729,
      "minFilter": 9987,
      "wrapS": 10497,
      "wrapT": 10497
    }
  ],
  "scene": 0,
  "scenes": [
    {
      "name": "Sketchfab_Scene",
      "nodes": [
        0
      ]
    }
  ],
  "textures": [
    {
      "sampler": 0,
      "source": 0
    },
    {
      "sampler": 0,
      "source": 1
    },
    {
      "sampler": 0,
      "source": 2
    },
    {
      "sampler": 0,
      "source": 3
    }
  ]
}
