{
  "accessors": [
    {
      "bufferView": 2,
      "componentType": 5126,
      "count": 982,
      "max": [
        50.476070404052734,
        50.26266860961914,
        109.0303726196289
      ],
      "min": [
        -52.21979904174805,
        -50.307098388671875,
        83.04117584228516
      ],
      "type": "VEC3"
    },
    {
      "bufferView": 2,
      "byteOffset": 11784,
      "componentType": 5126,
      "count": 982,
      "max": [
        0.9970696568489075,
        0.9980666041374207,
        0.9999476075172424
      ],
      "min": [
        -0.9950835108757019,
        -0.9999451041221619,
        -0.9999637007713318
      ],
      "type": "VEC3"
    },
    {
      "bufferView": 3,
      "componentType": 5126,
      "count": 982,
      "max": [
        0.9999997019767761,
        0.6152613759040833,
        0.9905940294265747,
        1.0
      ],
      "min": [
        -0.3237864673137665,
        -0.5146140456199646,
        -0.9984211921691895,
        -1.0
      ],
      "type": "VEC4"
    },
    {
      "bufferView": 1,
      "componentType": 5126,
      "count": 982,
      "max": [
        0.8975988030433655,
        1.0
      ],
      "min": [
        0.0,
        0.0
      ],
      "type": "VEC2"
    },
    {
      "bufferView": 0,
      "componentType": 5125,
      "count": 5664,
      "type": "SCALAR"
    },
    {
      "bufferView": 2,
      "byteOffset": 23568,
      "componentType": 5126,
      "count": 1248,
      "max": [
        11.473020553588867,
        12.074397087097168,
        89.01639556884766
      ],
      "min": [
        -13.764609336853027,
        -12.808980941772461,
        -18.456350326538086
      ],
      "type": "VEC3"
    },
    {
      "bufferView": 2,
      "byteOffset": 38544,
      "componentType": 5126,
      "count": 1248,
      "max": [
        0.9993692636489868,
        0.9998620748519897,
        0.9798746705055237
      ],
      "min": [
        -0.9984955191612244,
        -0.9991942048072815,
        -0.992059588432312
      ],
      "type": "VEC3"
    },
    {
      "bufferView": 3,
      "byteOffset": 15712,
      "componentType": 5126,
      "count": 1248,
      "max": [
        0.9999443888664246,
        0.9999889135360718,
        0.9593764543533325,
        1.0
      ],
      "min": [
        -0.9999156594276428,
        -0.9998357892036438,
        -0.8783765435218811,
        1.0
      ],
      "type": "VEC4"
    },
    {
      "bufferView": 1,
      "byteOffset": 7856,
      "componentType": 5126,
      "count": 1248,
      "max": [
        0.9836302399635315,
        0.9802888035774231
      ],
      "min": [
        7.64362706462407e-09,
        0.0
      ],
      "type": "VEC2"
    },
    {
      "bufferView": 0,
      "byteOffset": 22656,
      "componentType": 5125,
      "count": 6972,
      "type": "SCALAR"
    },
    {
      "bufferView": 2,
      "byteOffset": 53520,
      "componentType": 5126,
      "count": 563,
      "max": [
        21.926513671875,
        21.837953567504883,
        83.24374389648438
      ],
      "min": [
        -21.856067657470703,
        -20.37782096862793,
        66.93975067138672
      ],
      "type": "VEC3"
    },
    {
      "bufferView": 2,
      "byteOffset": 60276,
      "componentType": 5126,
      "count": 563,
      "max": [
        0.9987361431121826,
        0.9397639632225037,
        0.9789519906044006
      ],
      "min": [
        -0.9706379771232605,
        -0.8954892754554749,
        -0.6133207678794861
      ],
      "type": "VEC3"
    },
    {
      "bufferView": 3,
      "byteOffset": 35680,
      "componentType": 5126,
      "count": 563,
      "max": [
        0.9999915957450867,
        0.782562792301178,
        0.9532527923583984,
        1.0
      ],
      "min": [
        -0.4656142294406891,
        -0.6585949659347534,
        -0.9500035047531128,
        -1.0
      ],
      "type": "VEC4"
    },
    {
      "bufferView": 1,
      "byteOffset": 17840,
      "componentType": 5126,
      "count": 563,
      "max": [
        0.2556639611721039,
        0.8373882174491882
      ],
      "min": [
        1.528725412924814e-08,
        0.5924482941627502
      ],
      "type": "VEC2"
    },
    {
      "bufferView": 0,
      "byteOffset": 50544,
      "componentType": 5125,
      "count": 2991,
      "type": "SCALAR"
    }
  ],
  "asset": {
    "extras": {
      "author": "Timothy Hsu (https://sketchfab.com/timothyhsu)",
      "license": "CC-BY-4.0 (http://creativecommons.org/licenses/by/4.0/)",
      "source": "https://sketchfab.com/3d-models/fly-agaric-mushroom-d6c3876f091b4de49a38553a177bab0f",
      "title": "Fly Agaric Mushroom"
    },
    "generator": "Sketchfab-12.67.0",
    "version": "2.0"
  },
  "bufferViews": [
    {
      "buffer": 0,
      "byteLength": 62508,
      "name": "floatBufferViews",
      "target": 34963
    },
    {
      "buffer": 0,
      "byteLength": 22344,
      "byteOffset": 62508,
      "byteStride": 8,
      "name": "floatBufferViews",
      "target": 34962
    },
    {
      "buffer": 0,
      "byteLength": 67032,
      "byteOffset": 84852,
      "byteStride": 12,
      "name": "floatBufferViews",
      "target": 34962
    },
    {
      "buffer": 0,
      "byteLength": 44688,
      "byteOffset": 151884,
      "byteStride": 16,
      "name": "floatBufferViews",
      "target": 34962
    }
  ],
  "buffers": [
    {
      "byteLength": 196572,
      "uri": "scene.bin"
    }
  ],
  "images": [
    {
      "uri": "textures/default_baseColor.png"
    },
    {
      "uri": "textures/default_metallicRoughness.png"
    },
    {
      "uri": "textures/default_normal.png"
    }
  ],
  "materials": [
    {
      "doubleSided": true,
      "name": "default",
      "normalTexture": {
        "index": 2
      },
      "pbrMetallicRoughness": {
        "baseColorTexture": {
          "index": 0
        },
        "metallicFactor": 0.0,
        "metallicRoughnessTexture": {
          "index": 1
        }
      }
    }
  ],
  "meshes": [
    {
      "name": "hood_low_default_0",
      "primitives": [
        {
          "attributes": {
            "NORMAL": 1,
            "POSITION": 0,
            "TANGENT": 2,
            "TEXCOORD_0": 3
          },
          "indices": 4,
          "material": 0,
          "mode": 4
        }
      ]
    },
    {
      "name": "stem_low_default_0",
      "primitives": [
        {
          "attributes": {
            "NORMAL": 6,
            "POSITION": 5,
            "TANGENT": 7,
            "TEXCOORD_0": 8
          },
          "indices": 9,
          "material": 0,
          "mode": 4
        }
      ]
    },
    {
      "name": "annulus_low_default_0",
      "primitives": [
        {
          "attributes": {
            "NORMAL": 11,
            "POSITION": 10,
            "TANGENT": 12,
            "TEXCOORD_0": 13
          },
          "indices": 14,
          "material": 0,
          "mode": 4
        }
      ]
    }
  ],
  "nodes": [
    {
      "children": [
        1
      ],
      "matrix": [
        1.0,
        0.0,
        0.0,
        0.0,
        0.0,
        2.220446049250313e-16,
        -1.0,
        0.0,
        0.0,
        1.0,
        2.220446049250313e-16,
        0.0,
        0.0,
        0.0,
        0.0,
        1.0
      ],
      "name": "Sketchfab_model"
    },
    {
      "children": [
        2
      ],
      "matrix": [
        1.0,
        0.0,
        0.0,
        0.0,
        0.0,
        0.0,
        1.0,
        0.0,
        0.0,
        -1.0,
        0.0,
        0.0,
        0.0,
        0.0,
        0.0,
        1.0
      ],
      "name": "38bd2ec503fc4388ae6cb1b54c22bc5c.fbx"
    },
    {
      "children": [
        3,
        5,
        7
      ],
      "name": "RootNode"
    },
    {
      "children": [
        4
      ],
      "matrix": [
        1.0,
        0.0,
        0.0,
        0.0,
        0.0,
        2.220446049250313e-16,
        -1.0,
        0.0,
        0.0,
        1.0,
        2.220446049250313e-16,
        0.0,
        0.0,
        0.0,
        0.0,
        1.0
      ],
      "name": "hood_low"
    },
    {
      "mesh": 0,
      "name": "hood_low_default_0"
    },
    {
      "children": [
        6
      ],
      "matrix": [
        1.0,
        0.0,
        0.0,
        0.0,
        0.0,
        2.220446049250313e-16,
        -1.0,
        0.0,
        0.0,
        1.0,
        2.220446049250313e-16,
        0.0,
        0.0,
        0.0,
        0.0,
        1.0
      ],
      "name": "stem_low"
    },
    {
      "mesh": 1,
      "name": "stem_low_default_0"
    },
    {
      "children": [
        8
      ],
      "matrix": [
        1.0,
        0.0,
        0.0,
        0.0,
        0.0,
        2.220446049250313e-16,
        -1.0,
        0.0,
        0.0,
        1.0,
        2.220446049250313e-16,
        0.0,
        0.0,
        0.0,
        0.0,
        1.0
      ],
      "name": "annulus_low"
    },
    {
      "mesh": 2,
      "name": "annulus_low_default_0"
    }
  ],
  "samplers": [
    {
      "magFilter": 9729,
      "minFilter": 9987,
      "wrapS": 10497,
      "wrapT": 10497
    }
  ],
  "scene": 0,
  "scenes": [
    {
      "name": "Sketchfab_Scene",
      "nodes": [
        0
      ]
    }
  ],
  "textures": [
    {
      "sampler": 0,
      "source": 0
    },
    {
      "sampler": 0,
      "source": 1
    },
    {
      "sampler": 0,
      "source": 2
    }
  ]
}
